<svg width="600" height="500" viewBox="0 0 600 500" fill="none" xmlns="http://www.w3.org/2000/svg">
<g clip-path="url(#clip0_18_90)">
<path d="M349.499 88.1442C360.744 88.1442 369.86 77.6993 369.86 64.8149C369.86 51.9304 360.744 41.4856 349.499 41.4856C338.254 41.4856 329.138 51.9304 329.138 64.8149C329.138 77.6993 338.254 88.1442 349.499 88.1442Z" fill="#F2F2F2"/>
<path d="M507.446 434.378C537.71 407.966 552.165 363.583 543.116 321.245C542.891 320.193 542.654 319.143 542.404 318.096C536.404 292.964 521.562 269.079 499.929 261.049C481.765 254.306 461.938 259.491 442.989 256.81C405.79 251.546 376.95 217.06 356.658 180.953C336.366 144.846 320.771 104.429 293.807 74.5989C249.361 25.4293 176.858 14.843 121.752 46.8487C66.6455 78.8546 31.5433 149.862 33.0403 220.63C34.5374 291.398 71.2038 359.057 124.453 394.954C144.014 408.142 166.639 417.484 189.155 414.215C208.692 411.378 226.443 399.35 245.888 395.779C276.46 390.165 306.838 406.003 333.28 424.458C359.723 442.914 385.264 464.79 415.312 473.346C444.489 481.654 480.636 457.774 507.446 434.378Z" fill="#F2F2F2"/>
<path d="M463.963 48.3341C463.3 47.8274 462.629 47.3468 461.965 46.8575C442.788 32.8042 422.232 21.3875 400.724 12.8431L395.737 91.6712H364.121V1.33608C362.131 0.864261 360.125 0.418659 358.119 -0.000732422V91.6712H320.548C299.864 91.6712 280.028 82.2569 265.403 65.4993C250.777 48.7418 242.561 26.0136 242.561 2.31476C240.547 2.81279 238.55 3.34568 236.552 3.91361V91.6713H205.95L201.199 16.5041C179.096 26.2167 158.112 38.9894 138.715 54.5377C138.379 54.7998 138.044 55.0706 137.716 55.3327C136.031 56.687 134.368 58.0675 132.713 59.4655V360.195H222.902L221.308 334.901L212.538 196.021H389.141L380.371 334.901L378.777 360.195H467.967V51.3747C466.64 50.3438 465.305 49.3302 463.963 48.3341ZM236.552 173.086H211.09L206.385 98.5563H236.552V173.086ZM358.119 173.086H315.355V171.609C315.355 170.899 315.233 170.196 314.996 169.541C314.758 168.885 314.41 168.289 313.972 167.788C313.534 167.286 313.013 166.889 312.44 166.618C311.868 166.347 311.254 166.208 310.635 166.209H292.043C291.424 166.209 290.812 166.349 290.24 166.62C289.668 166.891 289.148 167.289 288.71 167.79C288.273 168.292 287.926 168.887 287.689 169.542C287.452 170.198 287.33 170.9 287.331 171.609V173.086H242.561V98.5563H358.119V173.086ZM364.121 173.086V98.5563H395.302L390.597 173.086H364.121Z" fill="#3F3D56"/>
<path d="M0 379.454C6.62458 388.448 13.7898 396.9 21.4433 404.748L578.557 405.622C586.21 397.773 593.375 389.321 600 380.328L0 379.454Z" fill="#3F3D56"/>
<path d="M377.797 298.459V373.342C377.797 374.296 378.128 375.211 378.717 375.886C379.306 376.56 380.105 376.94 380.938 376.941H477.787C478.619 376.94 479.418 376.56 480.007 375.886C480.596 375.211 480.927 374.296 480.928 373.342V298.459C480.926 297.506 480.594 296.592 480.005 295.918C479.417 295.245 478.619 294.866 477.787 294.864H380.938C380.106 294.866 379.308 295.245 378.719 295.918C378.13 296.592 377.799 297.506 377.797 298.459Z" fill="#3F3D56"/>
<path d="M380.069 299.391V372.418C380.069 372.928 380.246 373.417 380.561 373.777C380.876 374.138 381.302 374.341 381.747 374.341H476.98C477.425 374.341 477.852 374.138 478.167 373.777C478.481 373.417 478.658 372.928 478.659 372.418V299.391C478.659 298.881 478.482 298.391 478.168 298.03C477.853 297.668 477.426 297.465 476.98 297.464H381.747C381.302 297.465 380.875 297.668 380.56 298.03C380.245 298.391 380.069 298.881 380.069 299.391Z" fill="#3A53E3"/>
<path d="M375.771 387.946C375.949 388.201 376.174 388.406 376.431 388.547C376.687 388.687 376.969 388.76 377.253 388.758H480.956C481.239 388.758 481.519 388.685 481.775 388.545C482.031 388.405 482.257 388.201 482.435 387.949C482.614 387.697 482.741 387.402 482.808 387.086C482.875 386.77 482.879 386.441 482.821 386.123L481.211 377.362C481.144 377.005 481.001 376.672 480.793 376.395C480.586 376.117 480.321 375.904 480.023 375.774C479.807 375.677 479.578 375.627 479.346 375.627H378.857C378.625 375.627 378.395 375.677 378.179 375.774C377.881 375.904 377.617 376.117 377.409 376.395C377.202 376.672 377.058 377.005 376.991 377.362L375.381 386.123C375.324 386.441 375.329 386.77 375.397 387.085C375.464 387.4 375.592 387.694 375.771 387.946Z" fill="#2F2E41"/>
<path d="M475.788 379.401H478.237C478.443 379.401 478.609 379.21 478.609 378.975V377.632C478.609 377.396 478.443 377.205 478.237 377.205H475.788C475.582 377.205 475.415 377.396 475.415 377.632V378.975C475.415 379.21 475.582 379.401 475.788 379.401Z" fill="#3F3D56"/>
<path d="M469.4 379.401H471.849C472.055 379.401 472.221 379.21 472.221 378.975V377.632C472.221 377.396 472.055 377.205 471.849 377.205H469.4C469.194 377.205 469.027 377.396 469.027 377.632V378.975C469.027 379.21 469.194 379.401 469.4 379.401Z" fill="#3F3D56"/>
<path d="M463.012 379.401H465.461C465.667 379.401 465.833 379.21 465.833 378.975V377.632C465.833 377.396 465.667 377.205 465.461 377.205H463.012C462.806 377.205 462.639 377.396 462.639 377.632V378.975C462.639 379.21 462.806 379.401 463.012 379.401Z" fill="#3F3D56"/>
<path d="M456.624 379.401H459.073C459.279 379.401 459.445 379.21 459.445 378.975V377.632C459.445 377.396 459.279 377.205 459.073 377.205H456.624C456.418 377.205 456.251 377.396 456.251 377.632V378.975C456.251 379.21 456.418 379.401 456.624 379.401Z" fill="#3F3D56"/>
<path d="M450.236 379.401H452.685C452.891 379.401 453.057 379.21 453.057 378.975V377.632C453.057 377.396 452.891 377.205 452.685 377.205H450.236C450.03 377.205 449.863 377.396 449.863 377.632V378.975C449.863 379.21 450.03 379.401 450.236 379.401Z" fill="#3F3D56"/>
<path d="M443.848 379.401H446.297C446.503 379.401 446.669 379.21 446.669 378.975V377.632C446.669 377.396 446.503 377.205 446.297 377.205H443.848C443.642 377.205 443.475 377.396 443.475 377.632V378.975C443.475 379.21 443.642 379.401 443.848 379.401Z" fill="#3F3D56"/>
<path d="M437.46 379.401H439.909C440.115 379.401 440.281 379.21 440.281 378.975V377.632C440.281 377.396 440.115 377.205 439.909 377.205H437.46C437.254 377.205 437.088 377.396 437.088 377.632V378.975C437.088 379.21 437.254 379.401 437.46 379.401Z" fill="#3F3D56"/>
<path d="M431.072 379.401H433.521C433.727 379.401 433.894 379.21 433.894 378.975V377.632C433.894 377.396 433.727 377.205 433.521 377.205H431.072C430.866 377.205 430.7 377.396 430.7 377.632V378.975C430.7 379.21 430.866 379.401 431.072 379.401Z" fill="#3F3D56"/>
<path d="M424.684 379.401H427.133C427.339 379.401 427.505 379.21 427.505 378.975V377.632C427.505 377.396 427.339 377.205 427.133 377.205H424.684C424.478 377.205 424.311 377.396 424.311 377.632V378.975C424.311 379.21 424.478 379.401 424.684 379.401Z" fill="#3F3D56"/>
<path d="M418.296 379.401H420.745C420.951 379.401 421.117 379.21 421.117 378.975V377.632C421.117 377.396 420.951 377.205 420.745 377.205H418.296C418.09 377.205 417.923 377.396 417.923 377.632V378.975C417.923 379.21 418.09 379.401 418.296 379.401Z" fill="#3F3D56"/>
<path d="M411.908 379.401H414.357C414.563 379.401 414.729 379.21 414.729 378.975V377.632C414.729 377.396 414.563 377.205 414.357 377.205H411.908C411.702 377.205 411.536 377.396 411.536 377.632V378.975C411.536 379.21 411.702 379.401 411.908 379.401Z" fill="#3F3D56"/>
<path d="M405.52 379.401H407.969C408.175 379.401 408.342 379.21 408.342 378.975V377.632C408.342 377.396 408.175 377.205 407.969 377.205H405.52C405.314 377.205 405.148 377.396 405.148 377.632V378.975C405.148 379.21 405.314 379.401 405.52 379.401Z" fill="#3F3D56"/>
<path d="M399.132 379.401H401.581C401.787 379.401 401.954 379.21 401.954 378.975V377.632C401.954 377.396 401.787 377.205 401.581 377.205H399.132C398.926 377.205 398.76 377.396 398.76 377.632V378.975C398.76 379.21 398.926 379.401 399.132 379.401Z" fill="#3F3D56"/>
<path d="M392.744 379.401H395.193C395.399 379.401 395.565 379.21 395.565 378.975V377.632C395.565 377.396 395.399 377.205 395.193 377.205H392.744C392.538 377.205 392.371 377.396 392.371 377.632V378.975C392.371 379.21 392.538 379.401 392.744 379.401Z" fill="#3F3D56"/>
<path d="M386.356 379.401H388.805C389.011 379.401 389.178 379.21 389.178 378.975V377.632C389.178 377.396 389.011 377.205 388.805 377.205H386.356C386.15 377.205 385.984 377.396 385.984 377.632V378.975C385.984 379.21 386.15 379.401 386.356 379.401Z" fill="#3F3D56"/>
<path d="M379.968 379.401H382.417C382.623 379.401 382.79 379.21 382.79 378.975V377.632C382.79 377.396 382.623 377.205 382.417 377.205H379.968C379.762 377.205 379.596 377.396 379.596 377.632V378.975C379.596 379.21 379.762 379.401 379.968 379.401Z" fill="#3F3D56"/>
<path d="M475.863 383.061H478.313C478.518 383.061 478.685 382.87 478.685 382.634V381.291C478.685 381.056 478.518 380.865 478.313 380.865H475.863C475.657 380.865 475.491 381.056 475.491 381.291V382.634C475.491 382.87 475.657 383.061 475.863 383.061Z" fill="#3F3D56"/>
<path d="M469.475 383.061H471.925C472.13 383.061 472.297 382.87 472.297 382.634V381.291C472.297 381.056 472.13 380.865 471.925 380.865H469.475C469.27 380.865 469.103 381.056 469.103 381.291V382.634C469.103 382.87 469.27 383.061 469.475 383.061Z" fill="#3F3D56"/>
<path d="M463.087 383.061H465.536C465.742 383.061 465.909 382.87 465.909 382.634V381.291C465.909 381.056 465.742 380.865 465.536 380.865H463.087C462.881 380.865 462.715 381.056 462.715 381.291V382.634C462.715 382.87 462.881 383.061 463.087 383.061Z" fill="#3F3D56"/>
<path d="M456.699 383.061H459.149C459.354 383.061 459.521 382.87 459.521 382.634V381.291C459.521 381.056 459.354 380.865 459.149 380.865H456.699C456.494 380.865 456.327 381.056 456.327 381.291V382.634C456.327 382.87 456.494 383.061 456.699 383.061Z" fill="#3F3D56"/>
<path d="M450.311 383.061H452.761C452.966 383.061 453.133 382.87 453.133 382.634V381.291C453.133 381.056 452.966 380.865 452.761 380.865H450.311C450.106 380.865 449.939 381.056 449.939 381.291V382.634C449.939 382.87 450.106 383.061 450.311 383.061Z" fill="#3F3D56"/>
<path d="M443.923 383.061H446.373C446.578 383.061 446.745 382.87 446.745 382.634V381.291C446.745 381.056 446.578 380.865 446.373 380.865H443.923C443.718 380.865 443.551 381.056 443.551 381.291V382.634C443.551 382.87 443.718 383.061 443.923 383.061Z" fill="#3F3D56"/>
<path d="M437.535 383.061H439.985C440.19 383.061 440.357 382.87 440.357 382.634V381.291C440.357 381.056 440.19 380.865 439.985 380.865H437.535C437.33 380.865 437.163 381.056 437.163 381.291V382.634C437.163 382.87 437.33 383.061 437.535 383.061Z" fill="#3F3D56"/>
<path d="M431.147 383.061H433.597C433.802 383.061 433.969 382.87 433.969 382.634V381.291C433.969 381.056 433.802 380.865 433.597 380.865H431.147C430.942 380.865 430.775 381.056 430.775 381.291V382.634C430.775 382.87 430.942 383.061 431.147 383.061Z" fill="#3F3D56"/>
<path d="M424.759 383.061H427.209C427.414 383.061 427.581 382.87 427.581 382.634V381.291C427.581 381.056 427.414 380.865 427.209 380.865H424.759C424.554 380.865 424.387 381.056 424.387 381.291V382.634C424.387 382.87 424.554 383.061 424.759 383.061Z" fill="#3F3D56"/>
<path d="M418.371 383.061H420.821C421.026 383.061 421.193 382.87 421.193 382.634V381.291C421.193 381.056 421.026 380.865 420.821 380.865H418.371C418.166 380.865 417.999 381.056 417.999 381.291V382.634C417.999 382.87 418.166 383.061 418.371 383.061Z" fill="#3F3D56"/>
<path d="M411.983 383.061H414.433C414.638 383.061 414.805 382.87 414.805 382.634V381.291C414.805 381.056 414.638 380.865 414.433 380.865H411.983C411.778 380.865 411.611 381.056 411.611 381.291V382.634C411.611 382.87 411.778 383.061 411.983 383.061Z" fill="#3F3D56"/>
<path d="M405.595 383.061H408.045C408.25 383.061 408.417 382.87 408.417 382.634V381.291C408.417 381.056 408.25 380.865 408.045 380.865H405.595C405.39 380.865 405.223 381.056 405.223 381.291V382.634C405.223 382.87 405.39 383.061 405.595 383.061Z" fill="#3F3D56"/>
<path d="M399.207 383.061H401.657C401.862 383.061 402.029 382.87 402.029 382.634V381.291C402.029 381.056 401.862 380.865 401.657 380.865H399.207C399.002 380.865 398.835 381.056 398.835 381.291V382.634C398.835 382.87 399.002 383.061 399.207 383.061Z" fill="#3F3D56"/>
<path d="M392.819 383.061H395.269C395.474 383.061 395.641 382.87 395.641 382.634V381.291C395.641 381.056 395.474 380.865 395.269 380.865H392.819C392.614 380.865 392.447 381.056 392.447 381.291V382.634C392.447 382.87 392.614 383.061 392.819 383.061Z" fill="#3F3D56"/>
<path d="M386.431 383.061H388.881C389.086 383.061 389.253 382.87 389.253 382.634V381.291C389.253 381.056 389.086 380.865 388.881 380.865H386.431C386.226 380.865 386.059 381.056 386.059 381.291V382.634C386.059 382.87 386.226 383.061 386.431 383.061Z" fill="#3F3D56"/>
<path d="M380.044 383.061H382.493C382.699 383.061 382.865 382.87 382.865 382.634V381.291C382.865 381.056 382.699 380.865 382.493 380.865H380.044C379.838 380.865 379.671 381.056 379.671 381.291V382.634C379.671 382.87 379.838 383.061 380.044 383.061Z" fill="#3F3D56"/>
<path d="M422.843 387.452H447.65C447.856 387.452 448.022 387.261 448.022 387.026V385.683C448.022 385.447 447.856 385.256 447.65 385.256H422.843C422.637 385.256 422.471 385.447 422.471 385.683V387.026C422.471 387.261 422.637 387.452 422.843 387.452Z" fill="#3F3D56"/>
<path d="M396.56 313.44H394.392C393.734 313.44 393.201 314.051 393.201 314.804C393.201 315.557 393.734 316.168 394.392 316.168H396.56C397.218 316.168 397.751 315.557 397.751 314.804C397.751 314.051 397.218 313.44 396.56 313.44Z" fill="white"/>
<path d="M421.361 313.44H419.193C418.535 313.44 418.002 314.051 418.002 314.804C418.002 315.557 418.535 316.168 419.193 316.168H421.361C422.019 316.168 422.552 315.557 422.552 314.804C422.552 314.051 422.019 313.44 421.361 313.44Z" fill="white"/>
<path d="M428.388 313.44H426.219C425.562 313.44 425.029 314.051 425.029 314.804C425.029 315.557 425.562 316.168 426.219 316.168H428.388C429.045 316.168 429.578 315.557 429.578 314.804C429.578 314.051 429.045 313.44 428.388 313.44Z" fill="white"/>
<path d="M414.615 313.213H401.138C400.48 313.213 399.947 313.823 399.947 314.577C399.947 315.33 400.48 315.941 401.138 315.941H414.615C415.273 315.941 415.806 315.33 415.806 314.577C415.806 313.823 415.273 313.213 414.615 313.213Z" fill="white"/>
<path d="M447.683 313.213H434.206C433.548 313.213 433.015 313.823 433.015 314.577C433.015 315.33 433.548 315.941 434.206 315.941H447.683C448.341 315.941 448.874 315.33 448.874 314.577C448.874 313.823 448.341 313.213 447.683 313.213Z" fill="white"/>
<path d="M403.174 319.597H401.005C400.348 319.597 399.815 320.208 399.815 320.961C399.815 321.714 400.348 322.325 401.005 322.325H403.174C403.831 322.325 404.364 321.714 404.364 320.961C404.364 320.208 403.831 319.597 403.174 319.597Z" fill="white"/>
<path d="M427.975 319.597H425.806C425.149 319.597 424.616 320.208 424.616 320.961C424.616 321.714 425.149 322.325 425.806 322.325H427.975C428.632 322.325 429.165 321.714 429.165 320.961C429.165 320.208 428.632 319.597 427.975 319.597Z" fill="white"/>
<path d="M435.001 319.597H432.833C432.176 319.597 431.643 320.208 431.643 320.961C431.643 321.714 432.176 322.325 432.833 322.325H435.001C435.659 322.325 436.192 321.714 436.192 320.961C436.192 320.208 435.659 319.597 435.001 319.597Z" fill="white"/>
<path d="M421.229 319.37H407.751C407.094 319.37 406.561 319.98 406.561 320.734C406.561 321.487 407.094 322.098 407.751 322.098H421.229C421.886 322.098 422.419 321.487 422.419 320.734C422.419 319.98 421.886 319.37 421.229 319.37Z" fill="white"/>
<path d="M454.297 319.37H440.819C440.162 319.37 439.629 319.98 439.629 320.734C439.629 321.487 440.162 322.098 440.819 322.098H454.297C454.954 322.098 455.487 321.487 455.487 320.734C455.487 319.98 454.954 319.37 454.297 319.37Z" fill="white"/>
<path d="M409.787 325.754H407.619C406.961 325.754 406.428 326.365 406.428 327.118C406.428 327.871 406.961 328.482 407.619 328.482H409.787C410.445 328.482 410.978 327.871 410.978 327.118C410.978 326.365 410.445 325.754 409.787 325.754Z" fill="white"/>
<path d="M434.588 325.754H432.42C431.762 325.754 431.229 326.365 431.229 327.118C431.229 327.871 431.762 328.482 432.42 328.482H434.588C435.246 328.482 435.779 327.871 435.779 327.118C435.779 326.365 435.246 325.754 434.588 325.754Z" fill="white"/>
<path d="M441.615 325.754H439.447C438.789 325.754 438.256 326.365 438.256 327.118C438.256 327.871 438.789 328.482 439.447 328.482H441.615C442.273 328.482 442.806 327.871 442.806 327.118C442.806 326.365 442.273 325.754 441.615 325.754Z" fill="white"/>
<path d="M427.842 325.526H414.365C413.707 325.526 413.174 326.137 413.174 326.89C413.174 327.644 413.707 328.254 414.365 328.254H427.842C428.5 328.254 429.033 327.644 429.033 326.89C429.033 326.137 428.5 325.526 427.842 325.526Z" fill="white"/>
<path d="M460.91 325.526H447.433C446.775 325.526 446.242 326.137 446.242 326.89C446.242 327.644 446.775 328.254 447.433 328.254H460.91C461.568 328.254 462.101 327.644 462.101 326.89C462.101 326.137 461.568 325.526 460.91 325.526Z" fill="white"/>
<path d="M416.401 331.911H414.232C413.575 331.911 413.042 332.521 413.042 333.275C413.042 334.028 413.575 334.639 414.232 334.639H416.401C417.058 334.639 417.591 334.028 417.591 333.275C417.591 332.521 417.058 331.911 416.401 331.911Z" fill="white"/>
<path d="M441.202 331.911H439.033C438.376 331.911 437.843 332.521 437.843 333.275C437.843 334.028 438.376 334.639 439.033 334.639H441.202C441.859 334.639 442.392 334.028 442.392 333.275C442.392 332.521 441.859 331.911 441.202 331.911Z" fill="white"/>
<path d="M448.229 331.911H446.06C445.403 331.911 444.87 332.521 444.87 333.275C444.87 334.028 445.403 334.639 446.06 334.639H448.229C448.886 334.639 449.419 334.028 449.419 333.275C449.419 332.521 448.886 331.911 448.229 331.911Z" fill="white"/>
<path d="M434.456 331.683H420.978C420.321 331.683 419.788 332.294 419.788 333.047C419.788 333.801 420.321 334.411 420.978 334.411H434.456C435.113 334.411 435.646 333.801 435.646 333.047C435.646 332.294 435.113 331.683 434.456 331.683Z" fill="white"/>
<path d="M421.361 356.393H419.193C418.535 356.393 418.002 357.004 418.002 357.757C418.002 358.51 418.535 359.121 419.193 359.121H421.361C422.019 359.121 422.552 358.51 422.552 357.757C422.552 357.004 422.019 356.393 421.361 356.393Z" fill="white"/>
<path d="M428.388 356.393H426.219C425.562 356.393 425.029 357.004 425.029 357.757C425.029 358.51 425.562 359.121 426.219 359.121H428.388C429.045 359.121 429.578 358.51 429.578 357.757C429.578 357.004 429.045 356.393 428.388 356.393Z" fill="white"/>
<path d="M447.683 356.621H434.206C433.548 356.621 433.015 357.231 433.015 357.985C433.015 358.738 433.548 359.348 434.206 359.348H447.683C448.341 359.348 448.874 358.738 448.874 357.985C448.874 357.231 448.341 356.621 447.683 356.621Z" fill="white"/>
<path d="M396.56 356.393H394.392C393.734 356.393 393.201 357.004 393.201 357.757C393.201 358.51 393.734 359.121 394.392 359.121H396.56C397.218 359.121 397.751 358.51 397.751 357.757C397.751 357.004 397.218 356.393 396.56 356.393Z" fill="white"/>
<path d="M414.615 356.621H401.138C400.48 356.621 399.947 357.231 399.947 357.985C399.947 358.738 400.48 359.348 401.138 359.348H414.615C415.273 359.348 415.806 358.738 415.806 357.985C415.806 357.231 415.273 356.621 414.615 356.621Z" fill="white"/>
<path d="M403.174 350.236H401.005C400.348 350.236 399.815 350.847 399.815 351.6C399.815 352.354 400.348 352.964 401.005 352.964H403.174C403.831 352.964 404.364 352.354 404.364 351.6C404.364 350.847 403.831 350.236 403.174 350.236Z" fill="white"/>
<path d="M427.975 350.236H425.806C425.149 350.236 424.616 350.847 424.616 351.6C424.616 352.354 425.149 352.964 425.806 352.964H427.975C428.632 352.964 429.165 352.354 429.165 351.6C429.165 350.847 428.632 350.236 427.975 350.236Z" fill="white"/>
<path d="M435.001 350.236H432.833C432.176 350.236 431.643 350.847 431.643 351.6C431.643 352.354 432.176 352.964 432.833 352.964H435.001C435.659 352.964 436.192 352.354 436.192 351.6C436.192 350.847 435.659 350.236 435.001 350.236Z" fill="white"/>
<path d="M421.229 350.464H407.751C407.094 350.464 406.561 351.074 406.561 351.828C406.561 352.581 407.094 353.192 407.751 353.192H421.229C421.886 353.192 422.419 352.581 422.419 351.828C422.419 351.074 421.886 350.464 421.229 350.464Z" fill="white"/>
<path d="M409.787 344.079H407.619C406.961 344.079 406.428 344.69 406.428 345.443C406.428 346.197 406.961 346.807 407.619 346.807H409.787C410.445 346.807 410.978 346.197 410.978 345.443C410.978 344.69 410.445 344.079 409.787 344.079Z" fill="white"/>
<path d="M434.588 344.079H432.42C431.762 344.079 431.229 344.69 431.229 345.443C431.229 346.197 431.762 346.807 432.42 346.807H434.588C435.246 346.807 435.779 346.197 435.779 345.443C435.779 344.69 435.246 344.079 434.588 344.079Z" fill="white"/>
<path d="M441.615 344.079H439.447C438.789 344.079 438.256 344.69 438.256 345.443C438.256 346.197 438.789 346.807 439.447 346.807H441.615C442.273 346.807 442.806 346.197 442.806 345.443C442.806 344.69 442.273 344.079 441.615 344.079Z" fill="white"/>
<path d="M427.842 344.307H414.365C413.707 344.307 413.174 344.917 413.174 345.671C413.174 346.424 413.707 347.035 414.365 347.035H427.842C428.5 347.035 429.033 346.424 429.033 345.671C429.033 344.917 428.5 344.307 427.842 344.307Z" fill="white"/>
<path d="M416.401 337.922H414.232C413.575 337.922 413.042 338.533 413.042 339.286C413.042 340.04 413.575 340.65 414.232 340.65H416.401C417.058 340.65 417.591 340.04 417.591 339.286C417.591 338.533 417.058 337.922 416.401 337.922Z" fill="white"/>
<path d="M441.202 337.922H439.033C438.376 337.922 437.843 338.533 437.843 339.286C437.843 340.04 438.376 340.65 439.033 340.65H441.202C441.859 340.65 442.392 340.04 442.392 339.286C442.392 338.533 441.859 337.922 441.202 337.922Z" fill="white"/>
<path d="M448.229 337.922H446.06C445.403 337.922 444.87 338.533 444.87 339.286C444.87 340.04 445.403 340.65 446.06 340.65H448.229C448.886 340.65 449.419 340.04 449.419 339.286C449.419 338.533 448.886 337.922 448.229 337.922Z" fill="white"/>
<path d="M434.456 338.15H420.978C420.321 338.15 419.788 338.761 419.788 339.514C419.788 340.267 420.321 340.878 420.978 340.878H434.456C435.113 340.878 435.646 340.267 435.646 339.514C435.646 338.761 435.113 338.15 434.456 338.15Z" fill="white"/>
<path d="M385.031 428.55L374.852 410.112L406.805 380.927L419.993 364.186C421.707 362.011 423.888 360.389 426.32 359.483C428.752 358.576 431.349 358.417 433.851 359.021C436.354 359.625 438.674 360.971 440.58 362.924C442.486 364.877 443.912 367.369 444.714 370.151C445.903 374.274 445.647 378.765 444.001 382.676C442.355 386.587 439.447 389.612 435.891 391.113L415.036 399.916L385.031 428.55Z" fill="#A0616A"/>
<path d="M146.176 294.868V384.478H200.966V294.868C200.967 294.223 200.787 293.595 200.454 293.076C200.12 292.558 199.65 292.175 199.113 291.985C198.86 291.889 198.594 291.841 198.327 291.845H148.822C148.475 291.844 148.131 291.922 147.81 292.073C147.489 292.225 147.198 292.447 146.952 292.728C146.706 293.009 146.511 293.342 146.378 293.709C146.245 294.077 146.176 294.47 146.176 294.868ZM167.558 325.658C167.572 323.892 168.195 322.203 169.29 320.959C170.386 319.716 171.865 319.018 173.407 319.018C174.949 319.018 176.428 319.716 177.524 320.959C178.619 322.203 179.241 323.892 179.256 325.658V336.056C179.248 337.827 178.628 339.523 177.532 340.772C176.436 342.022 174.953 342.723 173.407 342.723C171.861 342.723 170.378 342.022 169.282 340.772C168.186 339.523 167.566 337.827 167.558 336.056V325.658Z" fill="#2F2E41"/>
<path d="M146.008 381.612V390.253C146.009 390.701 146.165 391.13 146.44 391.447C146.716 391.764 147.089 391.945 147.48 391.948H199.662C200.053 391.946 200.427 391.766 200.703 391.449C200.979 391.131 201.134 390.701 201.134 390.253V381.612H146.008Z" fill="#3F3D56"/>
<path d="M59.9832 159.859V323.474C59.9846 325.559 60.7081 327.558 61.9949 329.032C63.2817 330.507 65.0265 331.336 66.8462 331.337H278.458C280.277 331.336 282.022 330.507 283.309 329.032C284.596 327.558 285.319 325.559 285.321 323.474V159.859C285.316 157.776 284.592 155.779 283.305 154.307C282.019 152.835 280.276 152.007 278.458 152.004H66.8462C65.0281 152.007 63.2849 152.835 61.9985 154.307C60.7122 155.779 59.9875 157.776 59.9832 159.859Z" fill="#3F3D56"/>
<path d="M64.9475 161.895V321.456C64.9492 322.57 65.3362 323.637 66.0237 324.425C66.7112 325.213 67.6432 325.656 68.6154 325.658H276.696C277.668 325.656 278.6 325.213 279.288 324.425C279.975 323.637 280.362 322.57 280.364 321.456V161.895C280.364 160.779 279.978 159.709 279.29 158.92C278.602 158.13 277.67 157.686 276.696 157.683H68.6154C67.642 157.686 66.7091 158.13 66.0215 158.92C65.3338 159.709 64.9476 160.779 64.9475 161.895Z" fill="white"/>
<path d="M103.564 391.363C103.775 391.667 104.045 391.912 104.351 392.08C104.658 392.248 104.993 392.335 105.333 392.333H229.127C229.466 392.332 229.8 392.245 230.106 392.078C230.411 391.911 230.68 391.668 230.894 391.367C231.107 391.066 231.259 390.714 231.339 390.337C231.418 389.959 231.424 389.567 231.354 389.187L229.432 378.729C229.353 378.302 229.181 377.905 228.934 377.574C228.686 377.243 228.37 376.988 228.014 376.833C227.757 376.717 227.482 376.658 227.206 376.658H107.247C106.97 376.658 106.696 376.717 106.439 376.833C106.083 376.988 105.767 377.243 105.519 377.574C105.271 377.905 105.1 378.302 105.02 378.729L103.099 389.187C103.03 389.567 103.036 389.959 103.117 390.335C103.197 390.711 103.35 391.062 103.564 391.363Z" fill="#2F2E41"/>
<path d="M269.943 179.663H75.243C75.0406 179.658 74.848 179.563 74.7065 179.397C74.565 179.231 74.4857 179.008 74.4857 178.776C74.4857 178.544 74.565 178.322 74.7065 178.156C74.848 177.99 75.0406 177.894 75.243 177.889H269.943C270.146 177.894 270.338 177.99 270.48 178.156C270.621 178.322 270.7 178.544 270.7 178.776C270.7 179.008 270.621 179.231 270.48 179.397C270.338 179.563 270.146 179.658 269.943 179.663Z" fill="#3F3D56"/>
<path d="M88.4964 173.36C91.0025 173.36 93.034 170.98 93.034 168.045C93.034 165.109 91.0025 162.73 88.4964 162.73C85.9904 162.73 83.9589 165.109 83.9589 168.045C83.9589 170.98 85.9904 173.36 88.4964 173.36Z" fill="#3F3D56"/>
<path d="M104.172 173.36C106.678 173.36 108.709 170.98 108.709 168.045C108.709 165.109 106.678 162.73 104.172 162.73C101.666 162.73 99.6342 165.109 99.6342 168.045C99.6342 170.98 101.666 173.36 104.172 173.36Z" fill="#3F3D56"/>
<path d="M119.847 173.36C122.353 173.36 124.385 170.98 124.385 168.045C124.385 165.109 122.353 162.73 119.847 162.73C117.341 162.73 115.309 165.109 115.309 168.045C115.309 170.98 117.341 173.36 119.847 173.36Z" fill="#3F3D56"/>
<path d="M260.504 164.044H249.371C249.151 164.05 248.941 164.154 248.787 164.335C248.634 164.515 248.547 164.757 248.547 165.009C248.547 165.262 248.634 165.504 248.787 165.684C248.941 165.865 249.151 165.969 249.371 165.975H260.504C260.725 165.971 260.937 165.868 261.092 165.687C261.248 165.507 261.335 165.263 261.335 165.009C261.335 164.756 261.248 164.512 261.092 164.332C260.937 164.151 260.725 164.048 260.504 164.044Z" fill="#3F3D56"/>
<path d="M260.504 167.67H249.371C249.15 167.676 248.941 167.78 248.787 167.96C248.633 168.141 248.546 168.383 248.546 168.635C248.546 168.888 248.633 169.13 248.787 169.311C248.941 169.491 249.15 169.595 249.371 169.601H260.504C260.726 169.598 260.938 169.495 261.093 169.314C261.249 169.133 261.337 168.89 261.337 168.635C261.337 168.381 261.249 168.138 261.093 167.957C260.938 167.776 260.726 167.673 260.504 167.67Z" fill="#3F3D56"/>
<path d="M260.504 171.296H249.371C249.151 171.302 248.941 171.406 248.787 171.587C248.634 171.767 248.547 172.009 248.547 172.261C248.547 172.514 248.634 172.756 248.787 172.936C248.941 173.117 249.151 173.221 249.371 173.227H260.504C260.725 173.223 260.937 173.12 261.092 172.939C261.248 172.759 261.335 172.515 261.335 172.261C261.335 172.008 261.248 171.764 261.092 171.583C260.937 171.403 260.725 171.299 260.504 171.296Z" fill="#3F3D56"/>
<path d="M528.911 385.404C529.247 386.525 529.884 387.495 530.731 388.175C531.578 388.855 532.591 389.21 533.626 389.189L553.827 388.593C554.869 388.57 555.876 388.161 556.698 387.427C557.52 386.694 558.113 385.675 558.388 384.524L561.247 349.498C562.261 350.025 563.365 350.285 564.479 350.259C565.446 350.231 566.399 349.986 567.283 349.536C568.167 349.086 568.966 348.441 569.632 347.638C570.299 346.834 570.821 345.889 571.169 344.854C571.516 343.82 571.683 342.717 571.659 341.609C571.634 340.5 571.42 339.408 571.027 338.395C570.635 337.382 570.072 336.467 569.371 335.703C568.67 334.94 567.844 334.341 566.941 333.943C566.038 333.545 565.076 333.354 564.109 333.382C563.664 333.38 563.22 333.433 562.785 333.539C562.312 332.953 561.736 332.486 561.096 332.17C560.456 331.853 559.765 331.694 559.068 331.702L527.993 332.621C527.735 332.632 527.479 332.669 527.227 332.73C526.545 332.876 525.899 333.187 525.331 333.643C524.763 334.099 524.287 334.688 523.935 335.373C523.583 336.057 523.363 336.82 523.29 337.609C523.217 338.399 523.292 339.198 523.511 339.951L528.911 385.404ZM561.833 347.12L563.867 338.774C564.099 337.809 564.104 336.792 563.883 335.825C563.982 335.825 564.069 335.771 564.167 335.771C565.562 335.738 566.911 336.34 567.919 337.445C568.927 338.55 569.512 340.068 569.545 341.666C569.577 343.264 569.055 344.812 568.094 345.97C567.132 347.128 565.809 347.802 564.414 347.843C563.512 347.876 562.62 347.626 561.833 347.12Z" fill="#2F2E41"/>
<path d="M527.227 332.73C527.889 337.068 535.332 340.117 544.282 339.587C552.512 339.152 559.241 335.841 560.474 331.917C560.018 331.762 559.544 331.69 559.068 331.702L527.993 332.621C527.735 332.632 527.479 332.669 527.227 332.73Z" fill="#3F3D56"/>
<path d="M545.922 366.158C545.963 366.146 546.002 366.126 546.037 366.1L550.425 362.809C550.478 362.77 550.521 362.716 550.551 362.652C550.581 362.588 550.597 362.517 550.597 362.444C550.597 362.372 550.582 362.3 550.551 362.236C550.521 362.173 550.478 362.118 550.425 362.079L545.865 358.657C545.823 358.625 545.776 358.603 545.727 358.592C545.678 358.581 545.627 358.581 545.578 358.593C545.529 358.605 545.482 358.627 545.44 358.66C545.399 358.692 545.363 358.733 545.336 358.781C545.308 358.829 545.289 358.883 545.28 358.94C545.271 358.996 545.271 359.054 545.282 359.111C545.292 359.167 545.312 359.22 545.34 359.268C545.369 359.315 545.405 359.356 545.447 359.387L549.52 362.443L545.62 365.369C545.544 365.425 545.489 365.511 545.463 365.61C545.438 365.709 545.443 365.815 545.48 365.91C545.516 366.004 545.58 366.081 545.661 366.127C545.742 366.172 545.835 366.183 545.922 366.158Z" fill="#3A53E3"/>
<path d="M538.993 366.524C539.067 366.502 539.133 366.456 539.184 366.391C539.234 366.327 539.267 366.246 539.277 366.16C539.288 366.073 539.275 365.986 539.242 365.908C539.208 365.829 539.155 365.765 539.089 365.721L535.045 363.065L538.954 359.738C538.994 359.704 539.028 359.661 539.054 359.612C539.079 359.563 539.096 359.508 539.104 359.452C539.111 359.395 539.108 359.337 539.096 359.281C539.084 359.226 539.062 359.174 539.032 359.128C539.003 359.082 538.965 359.043 538.922 359.013C538.879 358.984 538.832 358.964 538.782 358.956C538.733 358.948 538.682 358.951 538.634 358.965C538.585 358.979 538.54 359.003 538.499 359.038L534.123 362.762C534.073 362.805 534.032 362.862 534.005 362.928C533.978 362.994 533.966 363.066 533.97 363.138C533.974 363.211 533.993 363.281 534.026 363.342C534.06 363.404 534.106 363.455 534.161 363.491L538.71 366.479C538.796 366.536 538.897 366.552 538.993 366.524Z" fill="#3A53E3"/>
<path d="M545.486 369.041C545.523 369.03 545.558 369.013 545.59 368.99C545.633 368.961 545.671 368.921 545.7 368.875C545.73 368.829 545.751 368.776 545.763 368.72C545.775 368.665 545.777 368.607 545.769 368.55C545.762 368.493 545.744 368.439 545.718 368.39L539.499 356.675C539.446 356.576 539.362 356.505 539.263 356.478C539.165 356.451 539.062 356.469 538.975 356.529C538.889 356.59 538.827 356.687 538.803 356.799C538.779 356.912 538.795 357.031 538.848 357.129L545.067 368.845C545.109 368.924 545.173 368.987 545.248 369.022C545.324 369.057 545.407 369.064 545.486 369.041Z" fill="#3A53E3"/>
<path d="M195.856 227.893H162.158C160.783 227.893 159.669 229.17 159.669 230.745V234.517C159.669 236.092 160.783 237.369 162.158 237.369H195.856C197.231 237.369 198.346 236.092 198.346 234.517V230.745C198.346 229.17 197.231 227.893 195.856 227.893Z" fill="#3A53E3"/>
<path d="M215.499 246.846H142.516C141.141 246.846 140.026 248.122 140.026 249.698V253.47C140.026 255.045 141.141 256.322 142.516 256.322H215.499C216.874 256.322 217.988 255.045 217.988 253.47V249.698C217.988 248.122 216.874 246.846 215.499 246.846Z" fill="#E6E6E6"/>
<path d="M215.499 265.798H142.516C141.141 265.798 140.026 267.075 140.026 268.65V272.422C140.026 273.997 141.141 275.274 142.516 275.274H215.499C216.874 275.274 217.988 273.997 217.988 272.422V268.65C217.988 267.075 216.874 265.798 215.499 265.798Z" fill="#E6E6E6"/>
<path d="M221.686 329.262L221.851 329.86L221.86 329.88L226.836 347.213L232.56 367.188L243.329 404.724L243.433 410.555V410.575L244.234 457.481L242.015 463.84L244.512 474.266C244.512 474.266 243.364 458.506 237.205 467.557C233.717 472.7 229.637 477.963 226.288 482.896C231.168 485.159 236.126 487.206 241.163 489.036C242.25 489.435 243.347 489.814 244.443 490.192C244.677 490.272 244.912 490.352 245.147 490.432C261.843 496.089 279.104 499.268 296.506 499.89C297.411 499.92 298.299 499.94 299.16 499.96C299.464 499.97 299.76 499.98 300.056 499.98C301.03 499.99 301.996 500 302.97 500C304.936 500 306.893 499.967 308.842 499.9C323.264 499.435 337.603 497.213 351.615 493.272C351.519 486.644 351.258 478.899 350.884 470.627C350.71 466.57 346.805 462.174 346.57 457.928C346.404 454.739 349.91 451.739 349.727 448.499C348.544 428.555 347.065 436.211 345.969 422.087C345.856 420.702 345.752 419.376 345.656 418.11C344.952 409.04 344.464 403.369 344.464 403.369L349.145 369.57L356.495 316.504L355.93 315.438L355.295 315.079L316.523 293.091L314.418 286.912C313.804 285.131 312.74 283.602 311.362 282.52C309.984 281.438 308.355 280.854 306.684 280.841L281.144 280.722C279.818 280.715 278.511 281.07 277.329 281.759C276.148 282.447 275.126 283.448 274.35 284.679L267.434 295.653L221.686 329.262Z" fill="#3F3D56"/>
<path d="M249.218 396.372L243.433 410.555L239.484 420.243L232.69 461L229.289 465.136L226.375 450.493L195.874 458.252C194.873 451.883 195.606 458.468 194.988 451.481C195.162 451.281 195.345 451.082 195.528 450.883C196.015 450.364 196.424 449.876 196.415 449.408C196.067 425.307 197.111 384.291 205.827 359.443C207.193 355.386 208.992 351.539 211.186 347.991C211.36 347.722 211.525 347.452 211.691 347.183C215.709 340.735 218.25 334.385 221.851 329.87V329.86C221.873 329.84 221.894 329.816 221.912 329.791C221.925 329.783 221.937 329.773 221.947 329.761L246.687 314.73L247.748 348.898L248.505 373.457L249.218 396.372Z" fill="#3F3D56"/>
<path d="M338.427 400.4L345.653 418.115L348.175 424.284L354.967 465.037L358.357 469.163L361.278 454.524L362.65 454.201L387.402 448.327L394.616 474.58C396.242 471.476 396.883 467.823 396.43 464.24C395.977 460.657 394.458 457.364 392.13 454.916C391.637 454.405 391.226 453.908 391.238 453.438C391.649 425.091 390.135 373.331 376.469 352.027C372.129 345.266 369.525 338.532 365.736 333.828C365.724 333.815 365.724 333.801 365.712 333.801L356.492 316.503L355.929 315.441L355.295 315.078L338.427 400.4Z" fill="#3F3D56"/>
<path d="M294.652 272.394C313.418 272.394 328.63 254.963 328.63 233.462C328.63 211.96 313.418 194.53 294.652 194.53C275.886 194.53 260.673 211.96 260.673 233.462C260.673 254.963 275.886 272.394 294.652 272.394Z" fill="#A0616A"/>
<path d="M340.578 206.268C340.314 205.945 339.997 205.687 339.645 205.509C339.292 205.33 338.912 205.235 338.526 205.228L339.037 203.603C339.204 203.091 339.249 202.538 339.168 201.999C339.086 201.461 338.882 200.957 338.574 200.539C338.267 200.121 337.868 199.805 337.419 199.621C336.97 199.438 336.486 199.395 336.018 199.496L334.157 199.907L334.332 198.483C334.4 197.952 334.345 197.411 334.174 196.912C334.004 196.413 333.723 195.974 333.359 195.637C332.995 195.3 332.561 195.078 332.099 194.991C331.637 194.905 331.164 194.958 330.725 195.145C330.327 195.325 329.898 195.4 329.47 195.366C329.043 195.331 328.627 195.187 328.255 194.944C327.881 194.709 327.556 194.383 327.303 193.989C327.05 193.595 326.875 193.143 326.791 192.664L326.142 189.082L326.074 188.889C322.917 182.861 316.847 178.474 309.419 176.867C302.808 175.425 296.029 176.159 289.494 176.849C286.901 177.129 283.973 177.443 281.532 179.156C279.458 180.624 277.704 183.56 278.063 186.521C271.619 184.259 264.71 188.776 261.286 194.472C257.23 201.253 256.566 209.745 256.459 216.386C256.17 232.095 258.999 244.948 264.848 254.594C265.275 255.293 265.381 256.752 266.228 257.241L266.052 256.918C266.998 257.46 267.959 258.334 267.6 259.268C266.571 261.96 273.411 267.91 278.231 269.876C287.023 273.467 298.713 273.161 306.933 271.868L307.223 269.64C310.19 269.177 312.279 268.294 312.866 266.914C313.903 265.9 314.788 264.991 315.558 264.153L315.566 264.144C315.581 264.126 315.611 264.1 315.627 264.083C319.34 260.002 320.202 257.678 320.591 254.14C320.965 250.671 320.301 247.15 319.623 243.978C333.913 246.512 313.995 226.538 327.309 222.677C327.462 222.623 327.617 222.579 327.774 222.546C328.163 222.441 328.552 222.336 328.926 222.213C330.727 221.653 332.452 220.809 334.05 219.706C337.772 217.111 338.999 213.668 340.921 209.789C341.198 209.237 341.314 208.597 341.253 207.964C341.191 207.331 340.955 206.737 340.578 206.268Z" fill="#2F2E41"/>
<path d="M414.829 403.172C414.821 404.701 414.806 406.842 414.745 409.489C414.737 409.856 414.729 410.232 414.722 410.616C414.623 415.483 414.524 419.563 414.363 424.098C414.356 424.413 414.348 424.718 414.333 425.033C414.119 431.359 413.784 438.724 413.204 450.389C412.129 471.935 410.253 453.351 408.37 460.908C408.278 461.284 408.179 461.73 408.088 462.254C407.802 464.156 407.321 466.012 406.654 467.785C405.655 468.466 404.626 469.121 403.611 469.777C400.721 471.62 397.785 473.394 394.827 475.08C393.164 476.024 391.494 476.95 389.817 477.841C389.55 477.981 389.29 478.121 389.031 478.252C380.44 482.805 371.586 486.676 362.532 489.838C360.763 490.449 359.001 491.043 357.217 491.594C355.356 492.188 353.496 492.747 351.612 493.271C337.6 497.213 323.262 499.436 308.84 499.903C306.895 499.973 304.936 499.999 302.968 499.999C301.992 499.999 301.031 499.99 300.055 499.982C299.758 499.982 299.46 499.973 299.163 499.964C298.301 499.938 297.409 499.92 296.509 499.894C279.107 499.272 261.846 496.092 245.151 490.432L244.442 490.196C243.343 489.811 242.253 489.436 241.163 489.034C236.13 487.208 231.17 485.163 226.285 482.9C222.556 481.179 218.87 479.332 215.228 477.361C215.194 477.35 215.163 477.333 215.136 477.308C214.374 476.906 213.603 476.487 212.841 476.059C212.742 475.998 212.635 475.937 212.528 475.875C209.684 474.285 206.87 472.619 204.087 470.878C201.746 464.718 198.451 463.538 196.408 458.121C195.813 456.512 195.383 454.829 195.127 453.106C195.127 453.088 195.119 453.071 195.119 453.045C195.332 456.295 194.211 447.278 195.111 453.01C195.104 452.905 195.096 452.791 195.088 452.66C195.066 452.346 195.035 451.961 194.989 451.481C192.374 422.219 192.541 388.756 191.405 361.181C191.329 359.398 191.25 357.691 191.169 356.06C191.146 355.519 191.116 354.986 191.085 354.462C191.138 354.304 191.199 354.138 191.268 353.981C191.283 353.936 191.3 353.892 191.321 353.85C191.344 353.796 191.369 353.743 191.398 353.693C191.413 353.666 191.436 353.632 191.451 353.605C191.462 353.575 191.475 353.546 191.489 353.518C191.558 353.396 191.634 353.265 191.718 353.142C191.756 353.09 191.787 353.046 191.825 353.002C191.851 352.958 191.882 352.917 191.916 352.88C191.94 352.838 191.968 352.8 192 352.767C192.031 352.732 192.061 352.688 192.099 352.644C192.115 352.617 192.136 352.593 192.16 352.574C192.22 352.495 192.287 352.422 192.358 352.356C192.631 352.069 192.921 351.806 193.228 351.57C193.334 351.491 193.449 351.412 193.556 351.325C194.324 350.798 195.133 350.354 195.973 349.997C196.263 349.875 196.553 349.761 196.865 349.639C196.98 349.604 197.086 349.56 197.201 349.516C197.368 349.455 197.536 349.394 197.712 349.35C198.581 349.053 199.519 348.8 200.533 348.564C200.655 348.538 200.785 348.511 200.914 348.477C201.097 348.433 201.288 348.398 201.479 348.363C201.738 348.311 202.005 348.258 202.272 348.206C204.537 347.795 207.106 347.489 209.943 347.288C210.21 347.271 210.477 347.253 210.744 347.236C211.056 347.218 211.369 347.201 211.689 347.183C211.956 347.166 212.231 347.157 212.505 347.148C212.772 347.131 213.047 347.122 213.329 347.114C214.099 347.087 214.892 347.061 215.701 347.044C218.003 346.991 220.428 347.009 222.975 347.07C224.157 347.105 225.362 347.14 226.598 347.201C226.681 347.201 226.758 347.21 226.834 347.21C227.909 347.253 228.992 347.306 230.105 347.376C230.883 347.419 231.669 347.463 232.454 347.515C233.194 347.568 233.941 347.62 234.696 347.681C235.283 347.716 235.87 347.769 236.465 347.812C236.968 347.856 237.472 347.9 237.975 347.935L238.661 347.987C239.035 348.022 239.409 348.048 239.79 348.092C240.629 348.171 241.467 348.249 242.322 348.328C243.168 348.415 244.03 348.503 244.891 348.59C245.753 348.678 246.622 348.774 247.492 348.87C247.583 348.878 247.667 348.887 247.751 348.896C248.544 348.992 249.337 349.079 250.138 349.176C250.321 349.193 250.511 349.21 250.694 349.237C251.458 349.325 252.236 349.427 253.007 349.521C253.243 349.55 253.478 349.579 253.715 349.608C254.319 349.684 254.914 349.749 255.521 349.831C256.322 349.936 257.138 350.032 257.931 350.154C258.549 350.233 259.167 350.311 259.784 350.399C260.753 350.53 261.736 350.67 262.72 350.818C263.094 350.871 263.467 350.923 263.841 350.984C266.647 351.386 269.484 351.832 272.366 352.295C276.736 353.002 281.174 353.771 285.643 354.601C290.119 355.431 294.621 356.308 299.148 357.231C300.292 357.467 301.435 357.703 302.587 357.948C303.105 358.061 303.624 358.175 304.142 358.288C305.027 358.472 305.912 358.664 306.796 358.856C307.681 359.049 308.565 359.241 309.45 359.442C310.502 359.678 311.562 359.914 312.615 360.15C319.546 361.722 326.44 363.4 333.166 365.156C334.271 365.444 335.377 365.741 336.475 366.03C338.671 366.615 340.847 367.209 343.003 367.812C343.598 367.969 344.185 368.135 344.772 368.301C346.236 368.721 347.7 369.14 349.141 369.568L349.393 369.647C350.453 369.944 351.49 370.25 352.527 370.564C354.975 371.298 357.382 372.041 359.749 372.792C361.319 373.29 362.873 373.794 364.408 374.304C366.703 375.064 368.953 375.833 371.141 376.611C371.683 376.803 372.224 376.995 372.758 377.179C374.359 377.746 375.938 378.323 377.471 378.9C378.691 379.354 379.88 379.817 381.055 380.28C382.229 380.743 383.38 381.206 384.509 381.67C385.233 381.967 385.95 382.281 386.667 382.578C387.697 383.015 388.711 383.452 389.702 383.889C390.007 384.02 390.305 384.16 390.602 384.291C390.793 384.387 390.976 384.465 391.159 384.553C391.517 384.719 391.883 384.876 392.234 385.042C392.592 385.199 392.943 385.365 393.294 385.54C393.637 385.697 393.988 385.863 394.323 386.029C394.666 386.187 395.002 386.353 395.337 386.528C395.62 386.659 395.894 386.798 396.161 386.938C396.702 387.209 397.244 387.48 397.77 387.759C398.029 387.899 398.289 388.03 398.548 388.17L399.143 388.485C399.227 388.537 399.31 388.581 399.394 388.624C399.585 388.729 399.783 388.843 399.974 388.948C400.416 389.184 400.851 389.437 401.278 389.673C401.85 390.005 402.406 390.337 402.94 390.66C403.482 390.992 404.008 391.324 404.511 391.648C404.595 391.7 404.671 391.752 404.755 391.805C404.869 391.875 404.984 391.953 405.098 392.023C405.487 392.277 405.861 392.539 406.234 392.792C406.967 393.308 407.66 393.814 408.309 394.321C408.453 394.435 408.591 394.548 408.736 394.653C409.216 395.046 409.674 395.431 410.101 395.824C410.101 395.833 410.101 395.833 410.108 395.833C410.253 395.955 410.39 396.086 410.528 396.208C410.642 396.331 410.764 396.436 410.878 396.558C411.275 396.951 411.641 397.327 411.977 397.711C412.089 397.83 412.196 397.955 412.297 398.087C412.341 398.129 412.382 398.176 412.419 398.227C412.571 398.401 412.709 398.576 412.838 398.751C412.858 398.775 412.876 398.801 412.892 398.83C413.075 399.074 413.242 399.319 413.403 399.564C413.479 399.686 413.563 399.808 413.631 399.931C413.723 400.079 413.814 400.236 413.891 400.385C413.959 400.507 414.02 400.638 414.081 400.761C414.243 401.076 414.381 401.406 414.493 401.748C414.579 401.98 414.648 402.219 414.699 402.464C414.757 402.696 414.8 402.933 414.829 403.172Z" fill="#2F2E41"/>
<path opacity="0.2" d="M414.828 403.172C414.821 404.701 414.806 406.842 414.745 409.489C414.737 409.856 414.722 410.232 414.714 410.616C414.638 414.33 414.523 418.917 414.363 424.098C414.356 424.413 414.348 424.718 414.333 425.033C414.119 431.359 413.784 438.724 413.204 450.389C412.129 471.935 410.253 453.351 408.37 460.908C403.138 457.221 397.404 453.359 391.273 449.393C390.167 448.676 389.051 447.957 387.925 447.234C375.663 439.397 361.968 431.184 347.67 423.05C347.105 422.726 346.533 422.403 345.969 422.088C313.217 403.539 277.468 385.497 248.506 373.457C242.916 371.132 237.578 369.035 232.561 367.192C221.991 363.321 212.856 360.613 205.825 359.442C198.505 358.219 193.449 358.655 191.405 361.181C191.329 359.398 191.25 357.691 191.169 356.061C191.138 355.519 191.108 354.986 191.077 354.462C191.124 354.318 191.185 354.18 191.245 354.042C191.253 354.022 191.259 354.001 191.268 353.981C191.282 353.936 191.3 353.892 191.321 353.85C191.344 353.796 191.369 353.743 191.397 353.693C191.422 353.631 191.453 353.572 191.489 353.518C191.558 353.396 191.634 353.265 191.718 353.142C191.779 353.051 191.846 352.963 191.916 352.88C191.939 352.838 191.968 352.8 192 352.766C192.03 352.732 192.061 352.688 192.099 352.644C192.115 352.617 192.136 352.593 192.16 352.574C192.22 352.495 192.287 352.422 192.358 352.356C192.63 352.069 192.921 351.806 193.228 351.57C193.334 351.491 193.449 351.412 193.555 351.325C194.324 350.798 195.133 350.354 195.973 349.997C196.263 349.874 196.552 349.761 196.865 349.639C196.979 349.604 197.086 349.56 197.201 349.516C197.368 349.455 197.536 349.394 197.711 349.35C198.581 349.053 199.519 348.8 200.533 348.564C200.838 348.494 201.158 348.424 201.479 348.363C201.738 348.311 202.005 348.258 202.272 348.206C204.536 347.795 207.106 347.489 209.943 347.288C210.21 347.271 210.477 347.253 210.744 347.236C211.056 347.218 211.369 347.201 211.689 347.183C211.956 347.166 212.231 347.157 212.505 347.148C212.772 347.131 213.047 347.122 213.329 347.114C214.099 347.087 214.892 347.061 215.7 347.044C218.003 347 220.428 347.017 222.975 347.079C224.157 347.105 225.362 347.148 226.597 347.21C226.674 347.21 226.757 347.218 226.834 347.218C227.909 347.253 228.999 347.314 230.105 347.376C230.883 347.419 231.668 347.463 232.454 347.515C233.193 347.568 233.941 347.62 234.696 347.681C235.283 347.716 235.87 347.769 236.465 347.812C236.968 347.856 237.471 347.9 237.975 347.935C238.577 347.987 239.18 348.04 239.79 348.092C240.628 348.171 241.467 348.249 242.321 348.328C243.168 348.415 244.03 348.503 244.891 348.59C245.753 348.677 246.622 348.774 247.492 348.87C247.583 348.878 247.667 348.887 247.751 348.896C248.544 348.992 249.337 349.079 250.138 349.175C254.576 349.691 259.144 350.294 263.841 350.984C266.647 351.395 269.489 351.835 272.366 352.303C276.736 353.011 281.174 353.78 285.643 354.601C290.119 355.431 294.621 356.308 299.148 357.231C300.291 357.467 301.435 357.703 302.587 357.948C303.99 358.245 305.393 358.548 306.796 358.856C307.681 359.049 308.565 359.241 309.45 359.442C310.502 359.678 311.562 359.914 312.614 360.15C319.546 361.722 326.44 363.4 333.166 365.156C334.271 365.444 335.377 365.741 336.475 366.03C338.671 366.615 340.847 367.209 343.003 367.812C343.597 367.978 344.185 368.144 344.772 368.31C346.243 368.73 347.7 369.149 349.141 369.568V369.577C349.225 369.595 349.309 369.621 349.393 369.647C350.445 369.953 351.49 370.259 352.527 370.573C354.975 371.307 357.382 372.047 359.749 372.792C361.319 373.299 362.875 373.797 364.408 374.304C366.703 375.073 368.953 375.842 371.141 376.611C371.683 376.803 372.224 376.995 372.758 377.179C374.359 377.755 375.93 378.329 377.47 378.9C378.691 379.354 379.88 379.817 381.055 380.28C382.229 380.743 383.38 381.207 384.509 381.67C385.241 381.967 385.958 382.272 386.667 382.57C387.704 383.006 388.711 383.443 389.702 383.889C390.007 384.02 390.304 384.16 390.602 384.291C391.158 384.535 391.7 384.789 392.234 385.042C392.592 385.199 392.943 385.365 393.294 385.54C393.637 385.697 393.988 385.864 394.323 386.03C394.666 386.187 395.002 386.353 395.337 386.528C395.619 386.659 395.894 386.798 396.161 386.938C396.702 387.209 397.244 387.48 397.77 387.759C398.029 387.899 398.288 388.03 398.548 388.17L399.143 388.485C399.226 388.537 399.31 388.581 399.394 388.624C400.042 388.974 400.668 389.323 401.278 389.673C401.85 390.005 402.406 390.337 402.94 390.66C403.573 391.045 404.175 391.42 404.755 391.805C404.869 391.875 404.984 391.953 405.098 392.023C405.487 392.277 405.861 392.539 406.234 392.792C406.966 393.308 407.66 393.814 408.309 394.321C408.949 394.828 409.544 395.326 410.101 395.824C410.101 395.833 410.101 395.833 410.108 395.833C410.375 396.077 410.634 396.322 410.878 396.558C411.275 396.951 411.641 397.327 411.976 397.711C412.089 397.83 412.196 397.955 412.297 398.087C412.341 398.129 412.382 398.176 412.419 398.227C412.579 398.428 412.739 398.629 412.892 398.83C413.075 399.074 413.242 399.319 413.403 399.564C413.479 399.686 413.563 399.808 413.631 399.931C413.723 400.079 413.814 400.236 413.891 400.385C413.959 400.507 414.02 400.638 414.081 400.761C414.243 401.075 414.381 401.406 414.493 401.748C414.576 401.981 414.645 402.22 414.699 402.464C414.757 402.696 414.8 402.933 414.828 403.172Z" fill="black"/>
</g>
<defs>
<clipPath id="clip0_18_90">
<rect width="600" height="500" fill="white"/>
</clipPath>
</defs>
</svg>
