<svg width="50" height="30" viewBox="0 0 80 50" fill="none" xmlns="http://www.w3.org/2000/svg">
<path d="M6.65693 25.6799L25.2263 32.9538V41.5244L0 29.9494V23.8773L6.65693 25.6799ZM25.2263 19.7343L6.62774 27.1347L0 28.8425V22.7704L25.2263 11.1954V19.7343Z" fill="url(#paint0_linear_18_69)"/>
<path d="M50.3358 0L34.7445 50H28.4963L44.0876 0H50.3358Z" fill="url(#paint1_linear_18_69)"/>
<path d="M73.2847 26.945L54.5693 19.7027V11.1954L80 22.7704V28.8741L73.2847 26.945ZM54.5693 33.0171L73.3139 25.6167L80 23.8773V29.9494L54.5693 41.5244V33.0171Z" fill="url(#paint2_linear_18_69)"/>
<defs>
<linearGradient id="paint0_linear_18_69" x1="40" y1="0" x2="40" y2="50" gradientUnits="userSpaceOnUse">
<stop stop-color="#292929"/>
<stop offset="0.0001" stop-color="#292929"/>
<stop offset="1" stop-color="#101010"/>
</linearGradient>
<linearGradient id="paint1_linear_18_69" x1="40" y1="0" x2="40" y2="50" gradientUnits="userSpaceOnUse">
<stop stop-color="#292929"/>
<stop offset="0.0001" stop-color="#292929"/>
<stop offset="1" stop-color="#101010"/>
</linearGradient>
<linearGradient id="paint2_linear_18_69" x1="40" y1="0" x2="40" y2="50" gradientUnits="userSpaceOnUse">
<stop stop-color="#292929"/>
<stop offset="0.0001" stop-color="#292929"/>
<stop offset="1" stop-color="#101010"/>
</linearGradient>
</defs>
</svg>
