<svg width="95" height="37" viewBox="0 0 95 37" fill="none" xmlns="http://www.w3.org/2000/svg">
<path d="M6.45601 12.92V17.464H13.784V21.688H6.45601V26.616H14.744V31H0.984009V8.53598H14.744V12.92H6.45601Z" fill="white"/>
<path d="M38.3925 31H32.9205L23.7685 17.144V31H18.2965V8.53598H23.7685L32.9205 22.456V8.53598H38.3925V31Z" fill="white"/>
<path d="M55.4763 26.872L48.9803 19.8L55.4763 12.728H62.3563L55.8283 19.8L62.3563 26.872H55.4763Z" fill="white"/>
<path d="M78.9573 0.599976L70.3813 36.984H65.1013L73.6773 0.599976H78.9573Z" fill="white"/>
<path d="M81.2973 12.728H88.1773L94.6733 19.8L88.1773 26.872H81.2973L87.8253 19.8L81.2973 12.728Z" fill="white"/>
</svg>
